<svg xmlns="http://www.w3.org/2000/svg" xmlns:xlink="http://www.w3.org/1999/xlink" width="500" zoomAndPan="magnify" viewBox="0 0 375 374.999991" height="500" preserveAspectRatio="xMidYMid meet" version="1.0"><defs><clipPath id="b02016f45e"><path d="M 214 190 L 280.707031 190 L 280.707031 259 L 214 259 Z M 214 190 " clip-rule="nonzero"/></clipPath><clipPath id="3d9fcb6fd7"><path d="M 154 95.585938 L 221 95.585938 L 221 164 L 154 164 Z M 154 95.585938 " clip-rule="nonzero"/></clipPath><clipPath id="6543056921"><path d="M 156 252.703125 L 218.863281 252.703125 L 218.863281 270.320312 L 156 270.320312 Z M 156 252.703125 " clip-rule="nonzero"/></clipPath></defs><path fill="#004aad" d="M 219.933594 133.042969 C 220.71875 131.699219 222.445312 131.25 223.785156 132.042969 C 242.335938 142.976562 254.964844 161.414062 258.4375 182.621094 C 258.691406 184.164062 257.652344 185.613281 256.117188 185.867188 C 255.960938 185.890625 255.808594 185.90625 255.660156 185.90625 C 254.304688 185.90625 253.109375 184.921875 252.882812 183.539062 C 249.683594 163.992188 238.039062 146.996094 220.933594 136.910156 C 219.59375 136.121094 219.144531 134.390625 219.933594 133.042969 Z M 219.128906 139.996094 C 235.316406 149.542969 246.335938 165.621094 249.367188 184.117188 C 249.875 187.226562 252.519531 189.480469 255.65625 189.480469 C 256.023438 189.480469 256.386719 189.453125 256.691406 189.398438 C 258.378906 189.121094 259.851562 188.203125 260.847656 186.8125 C 261.839844 185.425781 262.234375 183.726562 261.953125 182.039062 C 258.316406 159.78125 245.058594 140.433594 225.59375 128.957031 C 224.613281 128.378906 223.496094 128.074219 222.359375 128.074219 C 220.113281 128.074219 218.003906 129.28125 216.855469 131.234375 C 215.992188 132.707031 215.753906 134.433594 216.183594 136.089844 C 216.613281 137.742188 217.660156 139.132812 219.128906 139.996094 " fill-opacity="1" fill-rule="nonzero"/><g clip-path="url(#b02016f45e)"><path fill="#004aad" d="M 274.738281 251.128906 C 273.015625 253.472656 270.355469 254.816406 267.4375 254.816406 L 227.171875 254.816406 C 224.253906 254.816406 221.59375 253.472656 219.871094 251.128906 C 218.148438 248.785156 217.65625 245.835938 218.519531 243.039062 C 220.382812 237.003906 224.199219 231.585938 229.261719 227.78125 C 231.597656 226.027344 234.128906 224.644531 236.800781 223.644531 C 233.066406 220.582031 230.679688 215.929688 230.679688 210.726562 C 230.679688 201.53125 238.136719 194.046875 247.304688 194.046875 C 256.472656 194.046875 263.929688 201.53125 263.929688 210.726562 C 263.929688 215.929688 261.539062 220.582031 257.808594 223.644531 C 260.480469 224.644531 263.011719 226.027344 265.347656 227.78125 C 270.410156 231.585938 274.226562 237.003906 276.089844 243.039062 C 276.949219 245.835938 276.457031 248.785156 274.738281 251.128906 Z M 279.496094 241.976562 C 277.414062 235.230469 273.148438 229.171875 267.488281 224.917969 C 266.292969 224.019531 265.042969 223.199219 263.753906 222.476562 C 266.167969 219.078125 267.496094 214.992188 267.496094 210.726562 C 267.496094 199.554688 258.4375 190.46875 247.304688 190.46875 C 236.171875 190.46875 227.113281 199.554688 227.113281 210.726562 C 227.113281 215 228.441406 219.078125 230.859375 222.476562 C 229.566406 223.199219 228.320312 224.015625 227.125 224.914062 C 221.457031 229.175781 217.191406 235.230469 215.113281 241.976562 C 213.914062 245.871094 214.597656 249.976562 217 253.253906 C 219.40625 256.523438 223.113281 258.394531 227.171875 258.394531 L 267.4375 258.394531 C 271.503906 258.394531 275.210938 256.519531 277.605469 253.253906 C 280.007812 249.984375 280.699219 245.878906 279.496094 241.976562 " fill-opacity="1" fill-rule="nonzero"/></g><path fill="#004aad" d="M 247.308594 227.410156 L 247.296875 227.410156 C 236.492188 227.410156 227.089844 234.363281 223.894531 244.710938 C 223.566406 245.773438 223.75 246.894531 224.402344 247.777344 C 225.050781 248.660156 226.058594 249.167969 227.171875 249.167969 L 267.4375 249.167969 C 268.546875 249.167969 269.558594 248.660156 270.207031 247.777344 C 270.855469 246.894531 271.042969 245.773438 270.710938 244.710938 C 267.515625 234.363281 258.113281 227.410156 247.308594 227.410156 " fill-opacity="1" fill-rule="nonzero"/><path fill="#004aad" d="M 247.300781 221.761719 C 247.300781 221.761719 247.304688 221.761719 247.304688 221.761719 C 247.304688 221.761719 247.308594 221.761719 247.308594 221.761719 C 253.371094 221.757812 258.300781 216.808594 258.300781 210.726562 C 258.300781 204.640625 253.367188 199.695312 247.304688 199.695312 C 241.242188 199.695312 236.308594 204.640625 236.308594 210.726562 C 236.308594 216.808594 241.238281 221.757812 247.300781 221.761719 " fill-opacity="1" fill-rule="nonzero"/><path fill="#004aad" d="M 150.875 132.042969 C 152.21875 131.253906 153.941406 131.699219 154.726562 133.046875 C 155.515625 134.390625 155.066406 136.121094 153.726562 136.910156 C 136.625 146.996094 124.976562 163.992188 121.777344 183.539062 C 121.550781 184.921875 120.359375 185.90625 119.003906 185.90625 C 118.855469 185.90625 118.699219 185.890625 118.546875 185.867188 C 117.011719 185.613281 115.972656 184.164062 116.226562 182.621094 C 119.695312 161.414062 132.328125 142.976562 150.875 132.042969 Z M 117.914062 189.386719 C 118.28125 189.453125 118.648438 189.480469 119.003906 189.480469 C 122.144531 189.480469 124.792969 187.226562 125.296875 184.121094 C 128.328125 165.621094 139.347656 149.539062 155.535156 139.996094 C 157.003906 139.128906 158.050781 137.742188 158.480469 136.089844 C 158.910156 134.429688 158.667969 132.703125 157.804688 131.234375 C 156.664062 129.285156 154.554688 128.074219 152.300781 128.074219 C 151.167969 128.074219 150.050781 128.378906 149.070312 128.957031 C 129.601562 140.433594 116.347656 159.78125 112.703125 182.039062 C 112.425781 183.730469 112.824219 185.425781 113.816406 186.816406 C 114.8125 188.203125 116.285156 189.121094 117.914062 189.386719 " fill-opacity="1" fill-rule="nonzero"/><path fill="#004aad" d="M 127.355469 221.761719 C 127.355469 221.761719 127.355469 221.761719 127.359375 221.761719 C 127.359375 221.761719 127.359375 221.761719 127.363281 221.761719 C 133.421875 221.757812 138.351562 216.808594 138.351562 210.726562 C 138.351562 204.640625 133.421875 199.695312 127.359375 199.695312 C 121.292969 199.695312 116.359375 204.640625 116.359375 210.726562 C 116.359375 216.808594 121.292969 221.757812 127.355469 221.761719 " fill-opacity="1" fill-rule="nonzero"/><path fill="#004aad" d="M 127.363281 227.410156 L 127.355469 227.410156 C 116.550781 227.410156 107.140625 234.363281 103.949219 244.710938 C 103.621094 245.773438 103.804688 246.894531 104.457031 247.777344 C 105.105469 248.660156 106.113281 249.167969 107.226562 249.167969 L 147.488281 249.167969 C 148.601562 249.167969 149.609375 248.660156 150.261719 247.777344 C 150.910156 246.894531 151.09375 245.773438 150.765625 244.710938 C 147.574219 234.363281 138.167969 227.410156 127.363281 227.410156 " fill-opacity="1" fill-rule="nonzero"/><path fill="#004aad" d="M 154.792969 251.128906 C 153.070312 253.472656 150.40625 254.816406 147.488281 254.816406 L 107.226562 254.816406 C 104.308594 254.816406 101.648438 253.472656 99.925781 251.128906 C 98.203125 248.785156 97.710938 245.835938 98.574219 243.039062 C 100.4375 237.003906 104.25 231.585938 109.316406 227.78125 C 111.648438 226.027344 114.183594 224.644531 116.851562 223.644531 C 113.121094 220.582031 110.734375 215.929688 110.734375 210.726562 C 110.734375 201.53125 118.191406 194.046875 127.359375 194.046875 C 136.523438 194.046875 143.980469 201.53125 143.980469 210.726562 C 143.980469 215.929688 141.59375 220.582031 137.863281 223.644531 C 140.535156 224.644531 143.066406 226.027344 145.398438 227.78125 C 150.464844 231.585938 154.28125 237.003906 156.140625 243.039062 C 157.003906 245.835938 156.511719 248.785156 154.792969 251.128906 Z M 159.550781 241.976562 C 157.46875 235.230469 153.203125 229.175781 147.539062 224.917969 C 146.34375 224.015625 145.097656 223.199219 143.804688 222.476562 C 146.222656 219.078125 147.550781 215 147.550781 210.726562 C 147.550781 199.554688 138.492188 190.46875 127.359375 190.46875 C 116.226562 190.46875 107.167969 199.554688 107.167969 210.726562 C 107.167969 215 108.492188 219.078125 110.910156 222.476562 C 109.621094 223.199219 108.371094 224.019531 107.179688 224.914062 C 101.515625 229.171875 97.25 235.230469 95.167969 241.976562 C 93.964844 245.871094 94.652344 249.984375 97.054688 253.253906 C 99.457031 256.523438 103.167969 258.394531 107.226562 258.394531 L 147.488281 258.394531 C 151.550781 258.394531 155.257812 256.523438 157.664062 253.25 C 160.0625 249.984375 160.75 245.871094 159.550781 241.976562 " fill-opacity="1" fill-rule="nonzero"/><path fill="#004aad" d="M 187.328125 126.90625 C 187.328125 126.90625 187.328125 126.90625 187.332031 126.90625 C 187.332031 126.90625 187.332031 126.90625 187.335938 126.90625 C 193.394531 126.90625 198.328125 121.957031 198.328125 115.875 C 198.328125 109.789062 193.394531 104.839844 187.332031 104.839844 C 181.269531 104.839844 176.335938 109.789062 176.335938 115.875 C 176.335938 121.957031 181.265625 126.90625 187.328125 126.90625 " fill-opacity="1" fill-rule="nonzero"/><path fill="#004aad" d="M 164.429688 152.925781 C 165.078125 153.808594 166.089844 154.316406 167.199219 154.316406 L 207.460938 154.316406 C 208.574219 154.316406 209.582031 153.808594 210.234375 152.925781 C 210.882812 152.039062 211.066406 150.921875 210.738281 149.859375 C 207.542969 139.511719 198.140625 132.558594 187.335938 132.554688 L 187.328125 132.554688 C 176.519531 132.558594 167.117188 139.511719 163.921875 149.859375 C 163.59375 150.921875 163.777344 152.039062 164.429688 152.925781 " fill-opacity="1" fill-rule="nonzero"/><g clip-path="url(#3d9fcb6fd7)"><path fill="#004aad" d="M 176.824219 128.792969 C 173.09375 125.730469 170.707031 121.078125 170.707031 115.875 C 170.707031 106.675781 178.164062 99.191406 187.332031 99.191406 C 196.5 99.191406 203.957031 106.675781 203.957031 115.875 C 203.957031 121.078125 201.570312 125.730469 197.835938 128.792969 C 200.507812 129.792969 203.039062 131.171875 205.375 132.929688 C 210.4375 136.730469 214.253906 142.152344 216.113281 148.1875 C 216.980469 150.984375 216.484375 153.929688 214.765625 156.277344 C 213.042969 158.621094 210.382812 159.964844 207.460938 159.964844 L 167.199219 159.964844 C 164.28125 159.964844 161.621094 158.621094 159.898438 156.277344 C 158.175781 153.929688 157.683594 150.984375 158.546875 148.1875 C 160.410156 142.152344 164.222656 136.730469 169.289062 132.929688 C 171.621094 131.171875 174.15625 129.792969 176.824219 128.792969 Z M 155.140625 147.128906 C 153.9375 151.023438 154.625 155.132812 157.027344 158.402344 C 159.429688 161.671875 163.136719 163.542969 167.199219 163.542969 L 207.464844 163.542969 C 211.527344 163.542969 215.234375 161.667969 217.632812 158.402344 C 220.035156 155.132812 220.726562 151.023438 219.519531 147.128906 C 217.441406 140.375 213.171875 134.316406 207.511719 130.0625 C 206.320312 129.164062 205.070312 128.351562 203.78125 127.625 C 206.195312 124.226562 207.523438 120.144531 207.523438 115.875 C 207.523438 104.703125 198.464844 95.613281 187.332031 95.613281 C 176.199219 95.613281 167.140625 104.703125 167.140625 115.875 C 167.140625 120.144531 168.46875 124.226562 170.882812 127.621094 C 169.59375 128.351562 168.34375 129.164062 167.152344 130.0625 C 161.488281 134.3125 157.222656 140.375 155.140625 147.128906 " fill-opacity="1" fill-rule="nonzero"/></g><g clip-path="url(#6543056921)"><path fill="#004aad" d="M 213.21875 261.929688 C 204.960938 265.125 196.25 266.738281 187.332031 266.738281 C 178.410156 266.738281 169.699219 265.125 161.445312 261.929688 C 159.992188 261.371094 159.269531 259.738281 159.828125 258.28125 C 160.386719 256.824219 162.015625 256.101562 163.464844 256.660156 C 171.074219 259.601562 179.105469 261.09375 187.332031 261.09375 C 195.558594 261.09375 203.585938 259.601562 211.195312 256.660156 C 212.644531 256.101562 214.273438 256.824219 214.832031 258.28125 C 215.390625 259.738281 214.667969 261.371094 213.21875 261.929688 Z M 212.207031 252.894531 C 211.421875 252.894531 210.652344 253.039062 209.914062 253.320312 C 202.714844 256.101562 195.117188 257.515625 187.332031 257.515625 C 179.546875 257.515625 171.949219 256.101562 164.746094 253.320312 C 164.011719 253.039062 163.242188 252.894531 162.457031 252.894531 C 159.835938 252.894531 157.441406 254.539062 156.496094 256.996094 C 155.238281 260.292969 156.882812 264.007812 160.160156 265.269531 C 168.816406 268.621094 177.960938 270.320312 187.332031 270.320312 C 196.699219 270.320312 205.84375 268.621094 214.5 265.269531 C 217.777344 264.007812 219.417969 260.296875 218.164062 256.988281 C 217.203125 254.503906 214.867188 252.894531 212.207031 252.894531 " fill-opacity="1" fill-rule="nonzero"/></g></svg>